# Blender v2.93.0 OBJ File: ''
# www.blender.org
mtllib Arrow.mtl
o Cube_Cube.002
v -0.043199 -0.268922 0.947671
v -0.043199 0.268922 0.947671
v -0.043199 0.000000 -1.052329
v 0.043199 -0.268922 0.947671
v 0.043199 0.268922 0.947671
v 0.043199 0.000000 -1.052329
v -0.043199 -0.557750 -0.210753
v -0.043199 0.557750 -0.210753
v 0.043199 -0.557750 -0.210753
v 0.043199 0.557750 -0.210753
v -0.043199 -0.268922 -0.210753
v 0.043199 0.268922 -0.210753
v -0.043199 0.268922 -0.210753
v 0.043199 -0.268922 -0.210753
vt 0.375000 0.192411
vt 0.625000 0.192411
vt 0.375000 0.250000
vt 0.375000 0.557589
vt 0.625000 0.557589
vt 0.625000 0.750000
vt 0.375000 0.750000
vt 0.625000 1.000000
vt 0.375000 1.000000
vt 0.125000 0.557589
vt 0.125000 0.750000
vt 0.875000 0.557589
vt 0.875000 0.750000
vt 0.625000 0.500000
vt 0.875000 0.500000
vt 0.875000 0.557589
vt 0.625000 0.557589
vt 0.125000 0.500000
vt 0.375000 0.500000
vt 0.375000 0.557589
vt 0.125000 0.557589
vt 0.375000 0.192411
vt 0.625000 0.192411
vt 0.375000 0.000000
vt 0.625000 0.000000
vn -1.0000 0.0000 0.0000
vn 1.0000 0.0000 0.0000
vn 0.0000 0.0000 1.0000
vn 0.0000 -1.0000 0.0000
vn 0.0000 1.0000 0.0000
vn 0.0000 0.8336 -0.5524
vn 0.0000 -0.8336 -0.5524
usemtl None
s off
f 7/1/1 8/2/1 3/3/1
f 14/4/2 12/5/2 5/6/2 4/7/2
f 4/7/3 5/6/3 2/8/3 1/9/3
f 11/10/4 14/4/4 4/7/4 1/11/4
f 12/5/5 13/12/5 2/13/5 5/6/5
f 6/14/6 3/15/6 8/16/6 10/17/6
f 3/18/7 6/19/7 9/20/7 7/21/7
f 6/14/2 10/17/2 9/20/2
f 11/22/3 13/23/3 8/2/3 7/1/3
f 1/24/1 2/25/1 13/23/1 11/22/1
f 10/17/3 8/16/3 13/12/3 12/5/3
f 7/21/3 9/20/3 14/4/3 11/10/3
f 9/20/3 10/17/3 12/5/3 14/4/3
